<svg width="800" height="600" viewBox="0 0 800 600" xmlns="http://www.w3.org/2000/svg">
  <defs>
    <linearGradient id="bg5" x1="0%" y1="0%" x2="100%" y2="100%">
      <stop offset="0%" style="stop-color:#20c997;stop-opacity:1" />
      <stop offset="100%" style="stop-color:#007bff;stop-opacity:1" />
    </linearGradient>
  </defs>
  <rect width="800" height="600" fill="url(#bg5)"/>
  <rect x="50" y="50" width="700" height="500" fill="rgba(255,255,255,0.1)" rx="10"/>
  <text x="400" y="120" text-anchor="middle" fill="white" font-family="Arial, sans-serif" font-size="36" font-weight="bold">Data Visualization Suite</text>
  <rect x="100" y="180" width="250" height="150" fill="rgba(255,255,255,0.1)" rx="5"/>
  <rect x="380" y="180" width="250" height="150" fill="rgba(255,255,255,0.1)" rx="5"/>
  <polyline points="120,300 140,280 160,290 180,260 200,270 220,240 240,250 260,220 280,230 300,200" stroke="rgba(255,255,255,0.8)" stroke-width="3" fill="none"/>
  <rect x="400" y="200" width="20" height="80" fill="rgba(255,255,255,0.6)"/>
  <rect x="430" y="220" width="20" height="60" fill="rgba(255,255,255,0.6)"/>
  <rect x="460" y="240" width="20" height="40" fill="rgba(255,255,255,0.6)"/>
  <rect x="490" y="210" width="20" height="70" fill="rgba(255,255,255,0.6)"/>
  <rect x="520" y="200" width="20" height="80" fill="rgba(255,255,255,0.6)"/>
  <rect x="550" y="230" width="20" height="50" fill="rgba(255,255,255,0.6)"/>
  <text x="400" y="520" text-anchor="middle" fill="rgba(255,255,255,0.8)" font-family="Arial, sans-serif" font-size="18">D3.js • Interactive Charts • Real-time Data</text>
</svg>